<svg width="306" height="58" xmlns="http://www.w3.org/2000/svg"><g fill="none" fill-rule="evenodd"><g fill="#000"><path d="M297.41 57.333c-4.938 0-8.743-3.805-8.743-8.743 0-4.451 3.805-8.257 8.743-8.257 4.451 0 8.257 3.806 8.257 8.257 0 4.938-3.806 8.743-8.257 8.743zm-.003-2c3.35 0 6.26-2.91 6.26-6.259 0-3.83-2.91-6.74-6.26-6.74-3.83 0-6.74 2.91-6.74 6.74 0 3.35 2.91 6.26 6.74 6.26zm2.76-6.5a3 3 0 11-6.001 0 3 3 0 016 0zM249.5 49.5a2 2 0 11-4 0 2 2 0 014 0zm14.5 0a2 2 0 11-4 0 2 2 0 014 0zm-9.25 3a3.25 3.25 0 110-6.5 3.25 3.25 0 010 6.5z"/></g><text transform="translate(78 27)" fill="#000" font-family="PingFangSC-Regular, PingFang SC" font-size="17" opacity=".9"><tspan x="43" y="28" opacity="0">标题</tspan></text><path d="M289.667 2.615c2.225 0 4.364.854 5.977 2.386a.31.31 0 00.435-.003l1.16-1.17a.323.323 0 00-.002-.458c-4.232-4.052-10.908-4.052-15.14 0a.323.323 0 00-.003.457l1.16 1.17a.31.31 0 00.436.004 8.68 8.68 0 015.977-2.386zm0 3.808c1.222 0 2.401.454 3.307 1.273a.312.312 0 00.435-.005l1.16-1.17a.323.323 0 00-.005-.461 7.192 7.192 0 00-9.791 0 .323.323 0 00-.005.46l1.16 1.17c.119.12.312.123.434.006a4.929 4.929 0 013.305-1.273zm2.228 2.793a.315.315 0 00-.01-.459 3.438 3.438 0 00-4.436 0 .315.315 0 00-.01.459l2.006 2.022a.313.313 0 00.445 0l2.005-2.022zM261 7.333h1a1 1 0 011 1v2a1 1 0 01-1 1h-1a1 1 0 01-1-1v-2a1 1 0 011-1zm4.667-2h1a1 1 0 011 1v4a1 1 0 01-1 1h-1a1 1 0 01-1-1v-4a1 1 0 011-1zM270.333 3h1a1 1 0 011 1v6.333a1 1 0 01-1 1h-1a1 1 0 01-1-1V4a1 1 0 011-1zM275 .667h1a1 1 0 011 1v8.666a1 1 0 01-1 1h-1a1 1 0 01-1-1V1.667a1 1 0 011-1z" fill="#000" fill-rule="nonzero"/><text transform="translate(-13 -3)" fill="#000" font-family="Helvetica" font-size="15" letter-spacing="-.3"><tspan x="13.003" y="15.33">3:33</tspan></text></g></svg>
