<?xml version="1.0" encoding="UTF-8"?>
<svg width="750px" height="176px" viewBox="0 0 750 176" version="1.1" xmlns="http://www.w3.org/2000/svg" xmlns:xlink="http://www.w3.org/1999/xlink">
    <title>未命名</title>
    <g id="页面-1" stroke="none" stroke-width="1" fill="none" fill-rule="evenodd">
        <g id="1.iOS/1.Bars/2.Navigation-Bar/*X---Default">
            <g id="1.iOS/5.Overrides/1.Bars/Navigation-Bar/Background/Grey-&amp;-Blur" fill="#EDEDED" fill-opacity="0.9" fill-rule="evenodd">
                <rect id="Background" x="0" y="0" width="750" height="176"></rect>
            </g>
            <g id="1.iOS/2.Table/Line/Closure" transform="translate(0.000000, 174.000000)" fill="#000000" fill-opacity="0.1" fill-rule="evenodd">
                <rect id="Rectangle-17" x="0" y="1" width="750" height="1"></rect>
            </g>
            <g id="1.iOS/5.Overrides/1.Bars/Navigation-Bar/Default/Right/Miniprogram-Button" transform="translate(550.000000, 88.000000)" fill-rule="evenodd" stroke-width="1">
                <g id="Wechatsystem-default-@3x-Copy-9" transform="translate(14.000000, 12.000000)">
                    <rect id="Rectangle-2" stroke-opacity="0.201002038" stroke="#979797" fill-opacity="0.596637228" fill="#FFFFFF" x="0.5" y="0.5" width="173" height="63" rx="31.5"></rect>
                    <g id="Group-2" transform="translate(113.333333, 14.666667)" fill="#000000">
                        <path d="M17.4857143,0 C26.3888407,0 34,7.61115925 34,16.5142857 C34,26.3888407 26.3888407,34 17.4857143,34 C7.61115925,34 -5.68434189e-13,26.3888407 -5.68434189e-13,16.5142857 C-5.68434189e-13,7.61115925 7.61115925,0 17.4857143,0 Z M17.4814815,4 C9.82029825,4 4,9.82029825 4,17.4814815 C4,24.1797017 9.82029825,30 17.4814815,30 C24.1797017,30 30,24.1797017 30,17.4814815 C30,9.82029825 24.1797017,4 17.4814815,4 Z M17,11 C20.3132,11 23,13.6856 23,17 C23,20.3132 20.3132,23 17,23 C13.6868,23 11,20.3132 11,17 C11,13.6856 13.6868,11 17,11 Z" id="Combined-Shape"></path>
                    </g>
                    <rect id="Rectangle-3" fill-opacity="0.198907382" fill="#000000" x="87" y="13" width="1" height="37"></rect>
                    <path d="M45.5,26 C49.0898509,26 52,28.9101491 52,32.5 C52,36.0898509 49.0898509,39 45.5,39 C41.9101491,39 39,36.0898509 39,32.5 C39,28.9101491 41.9101491,26 45.5,26 Z M31,29 C33.2088,29 35,30.7904 35,33 C35,35.2088 33.2088,37 31,37 C28.7912,37 27,35.2088 27,33 C27,30.7904 28.7912,29 31,29 Z M60,29 C62.2088,29 64,30.7904 64,33 C64,35.2088 62.2088,37 60,37 C57.7912,37 56,35.2088 56,33 C56,30.7904 57.7912,29 60,29 Z" id="Fill-43" fill="#000000"></path>
                </g>
            </g>
            <g id="1.iOS/5.Overrides/1.Bars/Navigation-Bar/Default/Title/Default" transform="translate(256.000000, 88.000000)" fill="#000000" font-family="PingFangSC-Regular, PingFang SC" font-size="34" font-weight="normal" opacity="0.900000036">
                <text id="--↳-标题">
                    <tspan x="86" y="56">标题</tspan>
                </text>
            </g>
            <g id="1.iOS/5.Overrides/1.Bars/Navigation-Bar/Default/Left/Back" transform="translate(0.000000, 88.000000)" fill="#000000" fill-opacity="0.9" fill-rule="evenodd" stroke-width="1">
                <g id="3.Icons/Outlined/back" transform="translate(32.000000, 20.000000)">
                    <g id="Icons/Tint-Color/Black" transform="translate(2.000000, 7.000000)">
                        <path d="M18,31.875 L15.9090646,34 L0.578985728,18.4201705 C-0.192779534,17.635832 -0.193210921,16.3646064 0.578985728,15.5798295 L15.9090646,-7.10542736e-14 L18,2.125 L3.36345197,17 L18,31.875 Z" id="图标颜色"></path>
                    </g>
                </g>
            </g>
            <g id="1.iOS/1.Bars/1.Status-Bar/X---Light-Status-Bar">
                <g id="Battery" stroke-width="1" fill-rule="evenodd" transform="translate(672.000000, 34.000000)">
                    <path d="M37.8295726,1.66666667 L7.5036274,1.66666667 C5.40944125,1.66666667 4.63598429,1.8493681 3.8666104,2.26083376 C3.17432069,2.63107435 2.63100768,3.17438736 2.2607671,3.86667706 C1.84930143,4.63605096 1.6666,5.40950792 1.6666,7.50369407 L1.6666,16.4963059 C1.6666,18.5904921 1.84930143,19.363949 2.2607671,20.1333229 C2.63100768,20.8256126 3.17432069,21.3689257 3.8666104,21.7391662 C4.63598429,22.1506319 5.40944125,22.3333333 7.5036274,22.3333333 L37.8295726,22.3333333 C39.9237588,22.3333333 40.6972157,22.1506319 41.4665896,21.7391662 C42.1588793,21.3689257 42.7021923,20.8256126 43.0724329,20.1333229 C43.4838986,19.363949 43.6666,18.5904921 43.6666,16.4963059 L43.6666,7.50369407 C43.6666,5.40950792 43.4838986,4.63605096 43.0724329,3.86667706 C42.7021923,3.17438736 42.1588793,2.63107435 41.4665896,2.26083376 C40.6972157,1.8493681 39.9237588,1.66666667 37.8295726,1.66666667 Z" id="Border" stroke="#000000" stroke-width="2" opacity="0.35"></path>
                    <path d="M46.6666,8 L46.6666,16 C48.2760623,15.322447 49.322676,13.7462666 49.322676,12 C49.322676,10.2537334 48.2760623,8.67755303 46.6666,8" id="Cap" fill="#000000" fill-rule="nonzero" opacity="0.4"></path>
                    <path d="M8.0851137,4.66666667 L37.2480863,4.66666667 C38.436778,4.66666667 38.8678263,4.79043415 39.3023942,5.02284362 C39.7369621,5.25525308 40.0780136,5.59630452 40.3104231,6.03087244 C40.5428325,6.46544035 40.6666,6.89648868 40.6666,8.08518037 L40.6666,15.9148196 C40.6666,17.1035113 40.5428325,17.5345596 40.3104231,17.9691276 C40.0780136,18.4036955 39.7369621,18.7447469 39.3023942,18.9771564 C38.8678263,19.2095658 38.436778,19.3333333 37.2480863,19.3333333 L8.0851137,19.3333333 C6.89642201,19.3333333 6.46537368,19.2095658 6.03080577,18.9771564 C5.59623786,18.7447469 5.25518641,18.4036955 5.02277695,17.9691276 C4.79036749,17.5345596 4.6666,17.1035113 4.6666,15.9148196 L4.6666,8.08518037 C4.6666,6.89648868 4.79036749,6.46544035 5.02277695,6.03087244 C5.25518641,5.59630452 5.59623786,5.25525308 6.03080577,5.02284362 C6.46537368,4.79043415 6.89642201,4.66666667 8.0851137,4.66666667 Z" id="Capacity" fill="#000000" fill-rule="nonzero"></path>
                </g>
                <path d="M647.334139,39.2303002 C651.783604,39.2304949 656.062926,40.9387166 659.287634,44.0019012 C659.530462,44.2383906 659.918598,44.2354075 660.157757,43.9952136 L662.47898,41.6545544 C662.600078,41.5327288 662.667594,41.3677089 662.6666,41.1960109 C662.665584,41.0243128 662.596141,40.8600932 662.473626,40.739691 C654.009801,32.6352302 640.657138,32.6352302 632.193313,40.739691 C632.070709,40.8600038 632.001145,41.0241736 632,41.1958719 C631.998883,41.3675702 632.06628,41.5326402 632.187289,41.6545544 L634.509181,43.9952136 C634.748188,44.2357699 635.136623,44.2387553 635.379305,44.0019012 C638.604424,40.9385155 642.884237,39.2302889 647.334139,39.2303002 L647.334139,39.2303002 Z M647.334139,46.8454679 C649.778831,46.8453182 652.136281,47.7532247 653.948419,49.3927739 C654.19352,49.6254633 654.579616,49.6204186 654.818543,49.381405 L657.137089,47.0407457 C657.259189,46.9179715 657.326937,46.7514176 657.325209,46.5783463 C657.323415,46.4052751 657.252291,46.2401319 657.127718,46.1198635 C651.609395,40.9910464 643.063568,40.9910464 637.545245,46.1198635 C637.420594,46.2401304 637.349475,46.4053564 637.34781,46.5784835 C637.346203,46.7516107 637.414187,46.9181488 637.536543,47.0407457 L639.85442,49.381405 C640.093346,49.6204186 640.479443,49.6254633 640.724544,49.3927739 C642.535483,47.7543081 644.891063,46.8464792 647.334139,46.8454679 L647.334139,46.8454679 Z M651.789843,52.4316184 C651.913842,52.3100257 651.982129,52.1426979 651.978581,51.969141 C651.975034,51.795584 651.899966,51.6311814 651.771101,51.5147487 C649.209781,49.3502063 645.458496,49.3502063 642.897176,51.5147487 C642.768222,51.6310878 642.693031,51.7954387 642.689357,51.9689965 C642.685683,52.1425543 642.753851,52.309935 642.877766,52.4316184 L646.889037,56.4756088 C647.006604,56.5944588 647.166892,56.6613454 647.334139,56.6613454 C647.501385,56.6613454 647.661673,56.5944588 647.779241,56.4756088 L651.789843,52.4316184 Z" id="Wifi" fill="#000000" fill-rule="nonzero"></path>
                <path d="M590,48.6666673 L592,48.6666673 C593.104569,48.6666673 594,49.5620978 594,50.6666673 L594,54.6666673 C594,55.7712368 593.104569,56.6666673 592,56.6666673 L590,56.6666673 C588.895431,56.6666673 588,55.7712368 588,54.6666673 L588,50.6666673 C588,49.5620978 588.895431,48.6666673 590,48.6666673 L590,48.6666673 Z M599.333333,44.6666673 L601.333333,44.6666673 C602.437903,44.6666673 603.333333,45.5620978 603.333333,46.6666673 L603.333333,54.6666673 C603.333333,55.7712368 602.437903,56.6666673 601.333333,56.6666673 L599.333333,56.6666673 C598.228764,56.6666673 597.333333,55.7712368 597.333333,54.6666673 L597.333333,46.6666673 C597.333333,45.5620978 598.228764,44.6666673 599.333333,44.6666673 Z M608.666667,40.0000007 L610.666667,40.0000007 C611.771236,40.0000007 612.666667,40.8954312 612.666667,42.0000007 L612.666667,54.6666673 C612.666667,55.7712368 611.771236,56.6666673 610.666667,56.6666673 L608.666667,56.6666673 C607.562097,56.6666673 606.666667,55.7712368 606.666667,54.6666673 L606.666667,42.0000007 C606.666667,40.8954312 607.562097,40.0000007 608.666667,40.0000007 Z M618,35.333334 L620,35.333334 C621.104569,35.333334 622,36.2287645 622,37.333334 L622,54.6666673 C622,55.7712368 621.104569,56.6666673 620,56.6666673 L618,56.6666673 C616.895431,56.6666673 616,55.7712368 616,54.6666673 L616,37.333334 C616,36.2287645 616.895431,35.333334 618,35.333334 L618,35.333334 Z" id="Cellular-Connection" fill="#000000" fill-rule="nonzero"></path>
                <g id="Time-Style" stroke-width="1" fill-rule="evenodd" transform="translate(42.000000, 28.000000)" fill="#000000" font-family="Helvetica" font-size="30" font-weight="normal" letter-spacing="-0.600000024">
                    <text id="Time">
                        <tspan x="26.0056641" y="29.6599998">9:41</tspan>
                    </text>
                </g>
            </g>
        </g>
    </g>
</svg>