
<svg width="306px" height="58px" viewBox="0 0 306 58" version="1.1" xmlns="http://www.w3.org/2000/svg" xmlns:xlink="http://www.w3.org/1999/xlink">
    <!-- Generator: Sketch 50.2 (55047) - http://www.bohemiancoding.com/sketch -->
    <desc>Created with Sketch.</desc>
    <defs></defs>
    <g id="Symbols" stroke="none" stroke-width="1" fill="none" fill-rule="evenodd">
        <g id="Group" transform="translate(-50.000000, -17.000000)">
            <g id="1.iOS/5.Overrides/1.Bars/Navigation-Bar/Background/Grey-&amp;-Blur"></g>
            <g id="1.iOS/5.Overrides/1.Bars/Navigation-Bar/Default/Right/Miniprogram-Button" transform="translate(275.000000, 44.000000)" fill="#000000">
                <g id="Wechatsystem-default-@3x-Copy-9" transform="translate(7.000000, 6.000000)">
                    <g id="Group-2" transform="translate(56.666667, 7.333333)">
                        <path d="M8.74285714,17 C3.80557963,17 -2.84217094e-13,13.1944204 -2.84217094e-13,8.25714286 C-2.84217094e-13,3.80557963 3.80557963,0 8.74285714,0 C13.1944204,0 17,3.80557963 17,8.25714286 C17,13.1944204 13.1944204,17 8.74285714,17 Z M8.74074074,15 C12.0898509,15 15,12.0898509 15,8.74074074 C15,4.91014913 12.0898509,2 8.74074074,2 C4.91014913,2 2,4.91014913 2,8.74074074 C2,12.0898509 4.91014913,15 8.74074074,15 Z M11.5,8.5 C11.5,10.1566 10.1566,11.5 8.5,11.5 C6.8434,11.5 5.5,10.1566 5.5,8.5 C5.5,6.8428 6.8434,5.5 8.5,5.5 C10.1566,5.5 11.5,6.8428 11.5,8.5 Z" id="Combined-Shape"></path>
                    </g>
                    <path d="M17.5,16.5 C17.5,17.6044 16.6044,18.5 15.5,18.5 C14.3956,18.5 13.5,17.6044 13.5,16.5 C13.5,15.3952 14.3956,14.5 15.5,14.5 C16.6044,14.5 17.5,15.3952 17.5,16.5 Z M32,16.5 C32,17.6044 31.1044,18.5 30,18.5 C28.8956,18.5 28,17.6044 28,16.5 C28,15.3952 28.8956,14.5 30,14.5 C31.1044,14.5 32,15.3952 32,16.5 Z M22.75,19.5 C20.9550746,19.5 19.5,18.0449254 19.5,16.25 C19.5,14.4550746 20.9550746,13 22.75,13 C24.5449254,13 26,14.4550746 26,16.25 C26,18.0449254 24.5449254,19.5 22.75,19.5 Z" id="Fill-43"></path>
                </g>
            </g>
            <g id="1.iOS/5.Overrides/1.Bars/Navigation-Bar/Default/Title/Default" transform="translate(128.000000, 44.000000)" fill="#000000" font-family="PingFangSC-Regular, PingFang SC" font-size="17" font-weight="normal" opacity="0.900000036">
                <text id="--↳-标题">
                    <tspan x="43" y="28">标题</tspan>
                </text>
            </g>
            <g id="1.iOS/5.Overrides/1.Bars/Navigation-Bar/Default/Left/Back" transform="translate(0.000000, 44.000000)">
                <g id="3.Icons/Outlined/back" transform="translate(16.000000, 10.000000)">
                    <g id="Icons/Tint-Color/Black" transform="translate(1.000000, 3.000000)"></g>
                </g>
            </g>
            <g id="Battery" transform="translate(336.000000, 17.000000)"></g>
            <path d="M339.667069,19.6151501 C341.891802,19.6152475 344.031463,20.4693583 345.643817,22.0009506 C345.765231,22.1191953 345.959299,22.1177037 346.078879,21.9976068 L347.23949,20.8272772 C347.300039,20.7663644 347.333797,20.6838545 347.333294,20.5980054 C347.332792,20.5121564 347.29807,20.4300466 347.236813,20.3698455 C343.0049,16.3176151 336.328569,16.3176151 332.096657,20.3698455 C332.035354,20.4300019 332.000572,20.5120868 332.000007,20.5979359 C331.999442,20.6837851 332.03314,20.7663201 332.093645,20.8272772 L333.254591,21.9976068 C333.374094,22.117885 333.568312,22.1193777 333.689653,22.0009506 C335.302212,20.4692577 337.442119,19.6151445 339.667069,19.6151501 Z M339.667069,23.4227339 C340.889415,23.4226591 342.068141,23.8766124 342.97421,24.6963869 C343.09676,24.8127317 343.289808,24.8102093 343.409272,24.6907025 L344.568544,23.5203729 C344.629594,23.4589857 344.663468,23.3757088 344.662588,23.2891732 C344.661707,23.2026376 344.626146,23.120066 344.563859,23.0599317 C341.804697,20.4955232 337.531784,20.4955232 334.772622,23.0599317 C334.710297,23.1200652 334.674737,23.2026782 334.67392,23.2892418 C334.673102,23.3758053 334.707094,23.4590744 334.768272,23.5203729 L335.92721,24.6907025 C336.046673,24.8102093 336.239722,24.8127317 336.362272,24.6963869 C337.267742,23.877154 338.445531,23.4232396 339.667069,23.4227339 Z M341.894921,26.2158092 C341.956921,26.1550129 341.991064,26.0713489 341.989291,25.9845705 C341.987517,25.897792 341.949983,25.8155907 341.885551,25.7573743 C340.604891,24.6751031 338.729248,24.6751031 337.448588,25.7573743 C337.384111,25.8155439 337.346516,25.8977193 337.344679,25.9844982 C337.342841,26.0712771 337.376925,26.1549675 337.438883,26.2158092 L339.444518,28.2378044 C339.503302,28.2972294 339.583446,28.3306727 339.667069,28.3306727 C339.750693,28.3306727 339.830837,28.2972294 339.88962,28.2378044 L341.894921,26.2158092 Z" id="Wifi" fill="#000000" fill-rule="nonzero"></path>
            <path d="M311,24.3333337 L312,24.3333337 C312.552285,24.3333337 313,24.7810489 313,25.3333337 L313,27.3333337 C313,27.8856184 312.552285,28.3333337 312,28.3333337 L311,28.3333337 C310.447715,28.3333337 310,27.8856184 310,27.3333337 L310,25.3333337 C310,24.7810489 310.447715,24.3333337 311,24.3333337 Z M315.666667,22.3333337 L316.666667,22.3333337 C317.218951,22.3333337 317.666667,22.7810489 317.666667,23.3333337 L317.666667,27.3333337 C317.666667,27.8856184 317.218951,28.3333337 316.666667,28.3333337 L315.666667,28.3333337 C315.114382,28.3333337 314.666667,27.8856184 314.666667,27.3333337 L314.666667,23.3333337 C314.666667,22.7810489 315.114382,22.3333337 315.666667,22.3333337 Z M320.333333,20.0000003 L321.333333,20.0000003 C321.885618,20.0000003 322.333333,20.4477156 322.333333,21.0000003 L322.333333,27.3333337 C322.333333,27.8856184 321.885618,28.3333337 321.333333,28.3333337 L320.333333,28.3333337 C319.781049,28.3333337 319.333333,27.8856184 319.333333,27.3333337 L319.333333,21.0000003 C319.333333,20.4477156 319.781049,20.0000003 320.333333,20.0000003 Z M325,17.666667 L326,17.666667 C326.552285,17.666667 327,18.1143823 327,18.666667 L327,27.3333337 C327,27.8856184 326.552285,28.3333337 326,28.3333337 L325,28.3333337 C324.447715,28.3333337 324,27.8856184 324,27.3333337 L324,18.666667 C324,18.1143823 324.447715,17.666667 325,17.666667 Z" id="Cellular-Connection" fill="#000000" fill-rule="nonzero"></path>
            <g id="Time-Style" transform="translate(37.000000, 14.000000)" fill="#000000" font-family="Helvetica" font-size="15" font-weight="normal" letter-spacing="-0.3">
                <text id="Time">
                    <tspan x="13.002832" y="15.3299999">9:41</tspan>
                </text>
            </g>
        </g>
    </g>
</svg>
